<svg width="29" height="30" viewBox="0 0 29 30" fill="none" xmlns="http://www.w3.org/2000/svg">
<g clip-path="url(#clip0_2410_3009)">
<path d="M17.1502 0.708191H11.4334C5.11891 0.708191 0 5.8271 0 12.1416V17.8584C0 24.1729 5.11891 29.2918 11.4334 29.2918H17.1502C23.4647 29.2918 28.5836 24.1729 28.5836 17.8584V12.1416C28.5836 5.8271 23.4647 0.708191 17.1502 0.708191Z" fill="#0B3948"/>
<path d="M15.0329 7.46138L9.09173 9.83783C7.69922 10.3948 7.42479 12.2467 8.59592 13.1836L9.64366 14.0218C10.3585 14.5937 11.3743 14.5937 12.0892 14.0218L14.5371 12.0635C15.2519 11.4916 16.2677 11.4916 16.9826 12.0635L19.4304 14.0218C20.1453 14.5937 21.1611 14.5937 21.8759 14.0218L22.9237 13.1836C24.0948 12.2467 23.8204 10.3948 22.4279 9.83783L16.4868 7.46138C16.0201 7.27472 15.4995 7.27472 15.0329 7.46138Z" fill="url(#paint0_radial_2410_3009)"/>
<path d="M12.0968 22.5387L6.15569 20.1622C4.76318 19.6052 4.48875 17.7533 5.65989 16.8164L6.70763 15.9782C7.42249 15.4063 8.43827 15.4063 9.15313 15.9782L11.601 17.9365C12.3159 18.5084 13.3317 18.5084 14.0465 17.9365L16.4944 15.9782C17.2093 15.4063 18.225 15.4063 18.9399 15.9782L19.9877 16.8164C21.1588 17.7533 20.8844 19.6052 19.4919 20.1622L13.5507 22.5387C13.0841 22.7253 12.5635 22.7253 12.0968 22.5387Z" fill="url(#paint1_radial_2410_3009)"/>
</g>
<defs>
<radialGradient id="paint0_radial_2410_3009" cx="0" cy="0" r="1" gradientUnits="userSpaceOnUse" gradientTransform="translate(11.6004 18.9147) scale(9.54211 23.8553)">
<stop stop-color="#C1EFFD"/>
<stop offset="1" stop-color="#EAFBB5"/>
</radialGradient>
<radialGradient id="paint1_radial_2410_3009" cx="0" cy="0" r="1" gradientUnits="userSpaceOnUse" gradientTransform="translate(11.6004 18.9147) scale(9.54211 23.8553)">
<stop stop-color="#C1EFFD"/>
<stop offset="1" stop-color="#EAFBB5"/>
</radialGradient>
<clipPath id="clip0_2410_3009">
<rect width="29" height="30" fill="white"/>
</clipPath>
</defs>
</svg>
