<svg width="147" height="30" viewBox="0 0 147 30" fill="none" xmlns="http://www.w3.org/2000/svg">
<g id="Frame" clip-path="url(#clip0_2395_3058)">
<path id="Vector" d="M17.1502 0.708191H11.4334C5.11891 0.708191 0 5.8271 0 12.1416V17.8584C0 24.1729 5.11891 29.2918 11.4334 29.2918H17.1502C23.4647 29.2918 28.5836 24.1729 28.5836 17.8584V12.1416C28.5836 5.8271 23.4647 0.708191 17.1502 0.708191Z" fill="#0B3948"/>
<path id="Vector_2" d="M15.033 7.46138L9.09179 9.83783C7.69928 10.3948 7.42485 12.2467 8.59598 13.1836L9.64372 14.0218C10.3586 14.5937 11.3744 14.5937 12.0893 14.0218L14.5372 12.0635C15.252 11.4916 16.2678 11.4916 16.9827 12.0635L19.4305 14.0218C20.1454 14.5937 21.1612 14.5937 21.876 14.0218L22.9238 13.1836C24.0949 12.2467 23.8205 10.3948 22.428 9.83783L16.4869 7.46138C16.0202 7.27472 15.4996 7.27472 15.033 7.46138Z" fill="url(#paint0_radial_2395_3058)"/>
<path id="Vector_3" d="M12.0967 22.5387L6.15563 20.1622C4.76312 19.6052 4.48869 17.7533 5.65983 16.8164L6.70757 15.9782C7.42243 15.4063 8.43821 15.4063 9.15307 15.9782L11.6009 17.9365C12.3158 18.5084 13.3316 18.5084 14.0464 17.9365L16.4943 15.9782C17.2092 15.4063 18.2249 15.4063 18.9398 15.9782L19.9876 16.8164C21.1587 17.7533 20.8843 19.6052 19.4918 20.1622L13.5506 22.5387C13.084 22.7253 12.5634 22.7253 12.0967 22.5387Z" fill="url(#paint1_radial_2395_3058)"/>
<path id="Vector_4" d="M32.7443 20.3979C31.6431 19.9999 31.3139 18.6786 31.8597 17.6426C31.9109 17.5453 31.9603 17.4491 32.0079 17.354C32.0391 17.2942 32.0703 17.2336 32.1013 17.1721C32.6501 16.0839 33.989 15.583 35.1367 15.9931C35.6582 16.1794 36.2084 16.3434 36.7871 16.485C38.2201 16.8356 39.554 17.0109 40.7888 17.0109C42.0541 17.0109 42.9459 16.9042 43.4642 16.6908C43.9825 16.4621 44.2417 16.2182 44.2417 15.9591C44.2417 15.0292 42.8239 14.5642 39.9884 14.5642C36.8786 14.5642 34.6223 14.2441 33.2198 13.6038C31.8173 12.9483 31.1161 11.8964 31.1161 10.4481C31.1161 8.39013 31.9698 6.87329 33.6772 5.89764C35.3846 4.92198 37.6027 4.43416 40.3315 4.43416C41.9169 4.43416 43.5404 4.63996 45.2021 5.05156C46.2181 5.29171 47.1725 5.58781 48.0654 5.93988C49.0236 6.31769 49.4063 7.42985 49.0418 8.39319C48.8117 9.00125 48.5761 9.66337 48.3349 10.3795C48.2315 10.7241 47.8203 10.8397 47.512 10.6543C46.7723 10.2095 45.7966 9.82828 44.5847 9.51061C43.0145 9.08376 41.6272 8.87033 40.4229 8.87033C38.9747 8.87033 37.999 8.96942 37.496 9.1676C36.9929 9.35054 36.7413 9.62494 36.7413 9.99081C36.7413 10.3567 37.0844 10.654 37.7704 10.8826C38.4716 11.096 39.4778 11.2028 40.7888 11.2028C44.0206 11.2028 46.3683 11.5762 47.8318 12.3232C49.2953 13.055 50.027 14.1831 50.027 15.7075C50.027 17.8418 49.2495 19.3815 47.6946 20.3266C46.1396 21.2566 43.7844 21.7215 40.6287 21.7215C38.9366 21.7215 37.2139 21.5386 35.4608 21.1727C34.503 20.9645 33.5975 20.7062 32.7443 20.3979Z" fill="white"/>
<path id="Vector_5" d="M59.2156 21.7215C56.6087 21.7215 54.6879 21.127 53.4531 19.9379C52.2335 18.7336 51.6238 17.1558 51.6238 15.2045C51.6238 13.2989 52.2335 11.7516 53.4531 10.5625C54.6879 9.37339 56.6087 8.77885 59.2156 8.77885C60.9687 8.77885 62.4322 9.0685 63.606 9.6478C64.7951 10.2119 65.6717 10.9817 66.2357 11.9574C66.7998 12.9178 67.0818 14.0001 67.0818 15.2045C67.0818 17.171 66.4263 18.7488 65.1152 19.9379C63.8194 21.127 61.8529 21.7215 59.2156 21.7215ZM59.307 17.8342C60.2979 17.8342 61.0373 17.5979 61.5251 17.1253C62.013 16.6527 62.2569 16.02 62.2569 15.2273C62.2569 14.4803 62.013 13.8706 61.5251 13.398C61.0373 12.9102 60.2979 12.6662 59.307 12.6662C58.3161 12.6662 57.592 12.9025 57.1347 13.3751C56.6773 13.8477 56.4487 14.4651 56.4487 15.2273C56.4487 16.02 56.6773 16.6527 57.1347 17.1253C57.592 17.5979 58.3161 17.8342 59.307 17.8342Z" fill="white"/>
<path id="Vector_6" d="M80.6833 9.00754C81.8074 9.00754 82.6993 9.95177 82.6609 11.0751C82.6156 12.3946 82.593 13.7787 82.593 15.2273C82.593 16.6557 82.6147 18.0222 82.6581 19.3267C82.6966 20.4862 81.7459 21.432 80.5858 21.4247C80.537 21.4244 80.4896 21.4243 80.4436 21.4243C80.2624 21.4243 80.054 21.4269 79.8183 21.4322C78.8497 21.4538 77.9953 20.7899 77.8078 19.8393L77.4709 18.1314C77.1202 19.351 76.5714 20.258 75.8244 20.8526C75.0775 21.4319 74.2085 21.7215 73.2176 21.7215C72.3029 21.7215 71.5102 21.5233 70.8395 21.127C70.1687 20.7154 69.658 20.1666 69.3074 19.4806C68.972 18.7946 68.8043 18.0247 68.8043 17.171V13.8782C68.8043 12.8434 68.7944 11.9139 68.7745 11.0896C68.7473 9.96054 69.6447 9.00754 70.7741 9.00754H71.7955C72.9082 9.00754 73.796 9.93361 73.7643 11.0458C73.72 12.5956 73.6978 14.1342 73.6978 15.6618C73.6978 16.3326 73.8579 16.8661 74.178 17.2625C74.5134 17.6588 74.9326 17.857 75.4357 17.857C75.9083 17.857 76.3199 17.6512 76.6705 17.2396C77.0364 16.8128 77.2574 16.2335 77.3337 15.5017V14.9758C77.3641 13.7867 77.3794 12.9635 77.3794 12.5062C77.3794 12.0459 77.3736 11.5637 77.3619 11.0596C77.336 9.94197 78.2234 9.00754 79.3414 9.00754H80.6833Z" fill="white"/>
<path id="Vector_7" d="M89.8946 12.3918C90.5349 10.0899 92.128 8.93893 94.6738 8.93893C95.3845 8.93893 95.8731 9.59886 95.7726 10.3025L95.5673 11.7407C95.3903 12.9793 94.1161 13.6559 92.8694 13.5504C92.7495 13.5403 92.6344 13.5352 92.5243 13.5352C91.6554 13.5352 91.0152 13.7943 90.6036 14.3127C90.192 14.831 89.9861 15.5246 89.9861 16.3935V16.3707L89.9633 17.8799C89.9633 18.3757 89.9696 18.8971 89.9824 19.444C90.0085 20.5604 89.1214 21.4929 88.0047 21.4929H86.6594C85.5353 21.4929 84.6437 20.5486 84.6878 19.4254C84.7442 17.9848 84.7724 16.6007 84.7724 15.2731C84.7724 13.9668 84.7451 12.5991 84.6905 11.1699C84.6462 10.0119 85.5943 9.06751 86.753 9.07561C86.8035 9.07596 86.8523 9.07613 86.8992 9.07613C87.0869 9.07613 87.2975 9.0736 87.5308 9.06853C88.4966 9.04756 89.3502 9.70623 89.5422 10.653L89.8946 12.3918Z" fill="white"/>
<path id="Vector_8" d="M101.737 15.2502C101.767 16.0277 102.011 16.6527 102.469 17.1253C102.941 17.5979 103.635 17.8342 104.55 17.8342C105.053 17.8342 105.502 17.7427 105.899 17.5598C105.911 17.5536 105.923 17.5475 105.935 17.5412C106.665 17.1641 107.504 16.8949 108.286 17.1456C108.59 17.2429 108.903 17.3372 109.227 17.4284C110.416 17.7636 111.086 19.0957 110.164 19.9174C109.818 20.2255 109.425 20.4991 108.986 20.7383C107.797 21.3938 106.249 21.7215 104.344 21.7215C101.798 21.7215 99.9152 21.127 98.6956 19.9379C97.4761 18.7488 96.8663 17.1863 96.8663 15.2502C96.8663 13.3141 97.4761 11.7516 98.6956 10.5625C99.9152 9.37339 101.798 8.77885 104.344 8.77885C106.249 8.77885 107.797 9.10661 108.986 9.76213C109.427 10.0025 109.822 10.2776 110.169 10.5876C111.089 11.4088 110.424 12.7489 109.239 13.0932C108.915 13.1876 108.582 13.2887 108.243 13.3962C107.486 13.6363 106.684 13.3533 105.973 12.9992C105.948 12.9869 105.924 12.975 105.899 12.9635C105.502 12.7653 105.053 12.6662 104.55 12.6662C103.635 12.6662 102.941 12.9025 102.469 13.3751C102.011 13.8477 101.767 14.4727 101.737 15.2502Z" fill="white"/>
<path id="Vector_9" d="M116.327 7.65839C115.366 7.65839 114.65 7.4221 114.177 6.94951C113.72 6.47693 113.491 5.85952 113.491 5.0973C113.491 4.35031 113.72 3.7329 114.177 3.24508C114.65 2.75725 115.366 2.51334 116.327 2.51334C117.241 2.51334 117.943 2.76487 118.43 3.26794C118.918 3.75577 119.162 4.36555 119.162 5.0973C119.162 5.85952 118.926 6.47693 118.453 6.94951C117.981 7.4221 117.272 7.65839 116.327 7.65839ZM115.719 21.4929C114.604 21.4929 113.716 20.5633 113.754 19.4492C113.808 17.8892 113.834 16.5429 113.834 15.4103C113.834 14.0749 113.804 12.6272 113.744 11.0672C113.701 9.94704 114.592 9.00753 115.713 9.00753H117.073C118.196 9.00753 119.087 9.9495 119.044 11.0713C118.986 12.5832 118.956 14.0295 118.956 15.4103C118.956 16.5839 118.983 17.9293 119.035 19.4464C119.073 20.5616 118.184 21.4929 117.069 21.4929H115.719Z" fill="white"/>
<path id="Vector_10" d="M126.266 7.95567C126.235 8.03189 126.22 8.13098 126.22 8.25294C126.22 8.49685 126.319 8.69503 126.517 8.84748C126.731 8.98468 127.021 9.05328 127.386 9.05328H128.466C129.537 9.05328 130.405 9.92119 130.405 10.9918C130.405 12.1267 129.434 13.0111 128.301 12.9524C127.962 12.9348 127.657 12.9233 127.386 12.9178C127.398 15.0859 127.436 17.2673 127.502 19.4621C127.535 20.5714 126.647 21.4929 125.538 21.4929H124.125C123.037 21.4929 122.157 20.6063 122.162 19.5184C122.169 17.8341 122.173 15.6568 122.173 12.9864C121.284 13.0287 120.526 12.3401 120.526 11.4503V10.6768C120.526 9.78017 121.253 9.05328 122.15 9.05328V8.61881C122.15 7.42973 122.394 6.41596 122.882 5.57751C123.369 4.73906 124.04 4.10641 124.894 3.67956C125.763 3.25271 126.754 3.03928 127.867 3.03928C128.138 3.03928 128.41 3.05106 128.682 3.07461C129.753 3.16715 130.359 4.26394 130.129 5.3139C129.977 6.00999 129.825 6.77624 129.673 7.61266C129.612 7.91907 129.237 8.04964 128.964 7.89851C128.789 7.80208 128.606 7.72204 128.415 7.6584C128.019 7.50595 127.653 7.42973 127.318 7.42973C127.043 7.42973 126.815 7.47546 126.632 7.56693C126.449 7.6584 126.327 7.78798 126.266 7.95567Z" fill="white"/>
<path id="Vector_11" d="M145.573 9.00754C146.258 9.00754 146.726 9.69767 146.474 10.3338C145.026 14.1907 143.509 17.9104 141.924 21.4929C141.1 23.3222 139.911 24.7857 138.356 25.8833C137.152 26.7452 135.71 27.2596 134.03 27.4266C133.136 27.5154 132.364 26.8684 132.152 25.9951C132.01 25.4122 131.883 24.9176 131.771 24.5113C131.535 23.6082 132.333 22.6664 133.266 22.6809C133.309 22.6816 133.352 22.6819 133.394 22.6819C134.583 22.6819 135.528 22.4304 136.23 21.9273C135.681 20.2962 135.033 18.543 134.286 16.6679C133.765 15.3605 133.081 13.7233 132.234 11.7563C131.676 10.4587 132.623 9.00754 134.036 9.00754H134.915C135.82 9.00754 136.604 9.62927 136.858 10.4984C136.965 10.8657 137.083 11.2529 137.213 11.6601C137.533 12.6662 137.853 13.6343 138.173 14.5642C138.265 14.8538 138.41 15.2959 138.608 15.8905C138.821 16.4698 138.989 16.9576 139.111 17.354L139.705 15.5475C140.443 13.4143 140.987 11.7502 141.337 10.5552C141.599 9.66159 142.41 9.00754 143.341 9.00754H145.573Z" fill="white"/>
</g>
<defs>
<radialGradient id="paint0_radial_2395_3058" cx="0" cy="0" r="1" gradientUnits="userSpaceOnUse" gradientTransform="translate(11.6005 18.9147) scale(9.54211 23.8553)">
<stop stop-color="#C1EFFD"/>
<stop offset="1" stop-color="#EAFBB5"/>
</radialGradient>
<radialGradient id="paint1_radial_2395_3058" cx="0" cy="0" r="1" gradientUnits="userSpaceOnUse" gradientTransform="translate(11.6003 18.9147) scale(9.54211 23.8553)">
<stop stop-color="#C1EFFD"/>
<stop offset="1" stop-color="#EAFBB5"/>
</radialGradient>
<clipPath id="clip0_2395_3058">
<rect width="147" height="30" fill="white"/>
</clipPath>
</defs>
</svg>
